<?xml version="1.0" encoding="UTF-8" standalone="no"?>
<!-- Created with Inkscape (http://www.inkscape.org/) -->

<svg
   width="75mm"
   height="25mm"
   viewBox="0 0 75 25"
   version="1.1"
   id="svg5"
   inkscape:version="1.2.1 (9c6d41e410, 2022-07-14)"
   sodipodi:docname="LOOPSTR-path-logo.svg"
   inkscape:export-filename="LOOPSTR.png"
   inkscape:export-xdpi="254"
   inkscape:export-ydpi="254"
   xmlns:inkscape="http://www.inkscape.org/namespaces/inkscape"
   xmlns:sodipodi="http://sodipodi.sourceforge.net/DTD/sodipodi-0.dtd"
   xmlns="http://www.w3.org/2000/svg"
   xmlns:svg="http://www.w3.org/2000/svg">
  <sodipodi:namedview
     id="namedview7"
     pagecolor="#ffffff"
     bordercolor="#000000"
     borderopacity="0.25"
     inkscape:showpageshadow="2"
     inkscape:pageopacity="0.0"
     inkscape:pagecheckerboard="0"
     inkscape:deskcolor="#d1d1d1"
     inkscape:document-units="mm"
     showgrid="false"
     inkscape:zoom="0.47141647"
     inkscape:cx="-370.16102"
     inkscape:cy="445.46598"
     inkscape:window-width="1366"
     inkscape:window-height="695"
     inkscape:window-x="0"
     inkscape:window-y="0"
     inkscape:window-maximized="1"
     inkscape:current-layer="layer1" />
  <defs
     id="defs2">
    <rect
       x="-60.293934"
       y="326.92474"
       width="518.09277"
       height="247.34406"
       id="rect1709" />
  </defs>
  <g
     inkscape:label="Layer 1"
     inkscape:groupmode="layer"
     id="layer1">
    <path
       id="path331"
       style="font-weight:normal;font-size:64px;font-family:'Ostrich Sans';-inkscape-font-specification:'Ostrich Sans';white-space:pre;fill:#ffffff;stroke-width:1.85185"
       d="m 72.788786,22.47037 h -0.948149 v -5.54074 c 0,-2.4 -1.362962,-3.792593 -3.733333,-3.792593 H 65.440637 V 22.47037 H 64.522119 V 2.5 h 3.585185 c 3.2,0 4.622222,1.659259 4.622222,5.303704 0,1.777778 -0.355555,3.111111 -1.096296,3.97037 -0.325926,0.385185 -0.711111,0.681482 -1.185185,0.918519 0.385185,0.177778 0.711111,0.414815 1.007407,0.711111 0.888889,0.859259 1.333333,2.014815 1.333333,3.525926 z M 65.440637,12.188889 h 2.666667 c 2.637038,0 3.703704,-1.303704 3.703704,-4.385185 0,-3.111111 -1.066666,-4.355556 -3.703704,-4.355556 H 65.440637 Z M 52.462887,2.5 h 10.488889 v 0.948148 h -4.8 V 22.47037 H 57.233259 V 3.448148 h -4.770371 z m -10.16295,14.251852 h 0.918519 v 0.444444 c 0,1.985186 0.503703,3.051852 1.155555,3.644445 0.651852,0.592592 1.481482,0.711111 2.192593,0.711111 2.133333,0 3.348148,-1.57037 3.348148,-4.207407 0,-1.422223 -0.562963,-2.370371 -1.244445,-2.992593 -0.711111,-0.622222 -1.54074,-0.948148 -2.014814,-1.155556 l -0.503704,-0.207407 c -0.592593,-0.237037 -1.540741,-0.651852 -2.340741,-1.481481 -0.82963,-0.8 -1.511111,-1.955556 -1.511111,-3.703704 C 42.299937,4.811111 43.840678,2.5 46.566604,2.5 49.381418,2.5 50.8629,4.366667 50.8629,7.803704 V 8.277778 H 49.914752 V 7.803704 c 0,-2.992593 -1.096297,-4.355556 -3.348148,-4.355556 -2.133334,0 -3.348148,1.777778 -3.348148,4.355556 0,1.422222 0.533333,2.37037 1.244444,3.051852 0.681481,0.681481 1.481481,1.037037 2.074074,1.274074 l 0.474074,0.207407 c 0.503704,0.207408 1.481482,0.562963 2.311111,1.333334 0.82963,0.77037 1.540741,1.925925 1.540741,3.674074 0,2.962963 -1.540741,5.125925 -4.296296,5.125925 -2.844445,0 -4.266667,-1.748148 -4.266667,-5.274074 z M 33.174063,12.959259 V 22.5 H 32.255545 V 2.52963 h 3.585185 c 3.2,0 4.651851,1.748148 4.651851,5.214815 0,3.466666 -1.451851,5.214814 -4.651851,5.214814 z m 0,-9.511111 v 8.592593 h 2.666667 c 2.607407,0 3.703703,-1.303704 3.703703,-4.296296 0,-3.081482 -1.066666,-4.296297 -3.703703,-4.296297 z M 21.677797,7.803704 c 0,-3.407408 1.422222,-5.274074 4.237037,-5.274074 2.844444,0 4.266666,1.837037 4.266666,5.274074 v 9.392592 c 0,2.222223 -0.562963,3.496297 -1.392592,4.296297 -0.82963,0.8 -1.896297,1.007407 -2.874074,1.007407 -0.948148,0 -2.014815,-0.207407 -2.844445,-1.007407 -0.829629,-0.8 -1.392592,-2.074074 -1.392592,-4.296297 z m 0.918518,9.392592 c 0,2.992593 1.096297,4.385186 3.318519,4.385186 2.162963,0 3.318518,-1.303704 3.318518,-4.385186 V 7.803704 c 0,-3.051852 -1.096296,-4.355556 -3.318518,-4.355556 -2.251852,0 -3.318519,1.392593 -3.318519,4.355556 z M 11.129678,7.803704 c 0,-3.407408 1.422223,-5.274074 4.237037,-5.274074 2.844445,0 4.266667,1.837037 4.266667,5.274074 v 9.392592 c 0,2.222223 -0.562963,3.496297 -1.392593,4.296297 -0.829629,0.8 -1.896296,1.007407 -2.874074,1.007407 -0.948148,0 -2.014814,-0.207407 -2.844444,-1.007407 -0.82963,-0.8 -1.392593,-2.074074 -1.392593,-4.296297 z m 0.918519,9.392592 c 0,2.992593 1.096296,4.385186 3.318518,4.385186 2.162963,0 3.318519,-1.303704 3.318519,-4.385186 V 7.803704 c 0,-3.051852 -1.096296,-4.355556 -3.318519,-4.355556 -2.251851,0 -3.318518,1.392593 -3.318518,4.355556 z M 9.8556595,22.5 H 2.2112145 V 2.52963 h 0.948148 v 19.051852 h 6.696297 z" />
  </g>
</svg>
